<svg xmlns="http://www.w3.org/2000/svg" viewBox="0 -2 48 48" fill="none" id="appstore">
  <defs>
    <linearGradient id="paint0_linear" x1="24" x2="24" y1="0" y2="48" gradientUnits="userSpaceOnUse">
      <stop stop-color="#4780E8"></stop>
      <stop offset="1" stop-color="#11C8F6"></stop>
    </linearGradient>
  </defs>
  <g transform="scale(1)">
    <rect width="48" height="48" fill="url(#paint0_linear)" rx="24"></rect>
    <path fill="#fff" d="M25.6789 26.4739H10.8778C9.83947 26.4739 9 27.3133 9 28.3516C9 29.3899 9.83947 30.2294 10.8778 30.2294H27.9323C27.9323 30.2294 28.8159 29.3457 27.866 27.9098C26.894 26.4739 25.6789 26.4739 25.6789 26.4739Z"></path>
    <path fill="#fff" d="M24.9278 10.6786L15.7379 26.5843C15.2298 27.4901 15.5169 28.6388 16.4227 29.1469C17.3284 29.655 18.4772 29.3678 18.9853 28.4621L28.1753 12.5563C28.6834 11.6506 28.3962 10.5018 27.4904 9.99375C26.5847 9.46356 25.4359 9.77284 24.9278 10.6786Z"></path>
    <path fill="#fff" d="M36.1723 33.4106L26.7393 17.0409C26.7393 17.0409 25.3697 18.1013 25.3697 20.2C25.3697 22.2986 26.2312 23.7125 26.2312 23.7125L32.9249 35.3104C33.433 36.2162 34.5817 36.5254 35.4875 35.9952C36.3711 35.465 36.6804 34.3163 36.1723 33.4106Z"></path>
    <path fill="#fff" d="M37.1222 26.4739H31.8866C30.8483 26.4739 30.0088 27.3133 30.0088 28.3516C30.0088 29.3899 30.8483 30.2294 31.8866 30.2294H37.1222C38.1605 30.2294 39 29.3899 39 28.3516C39 27.3354 38.1605 26.4739 37.1222 26.4739Z"></path>
    <path fill="#fff" d="M25.0383 14.1248L23.0501 10.6565C22.542 9.77285 21.3711 9.46357 20.4875 9.97167C19.6038 10.4798 19.2946 11.6506 19.8027 12.5343L21.7909 16.0026C22.299 16.8862 23.4698 17.1955 24.3535 16.6874C25.2371 16.1793 25.5464 15.0306 25.0383 14.1248Z"></path>
    <path fill="#fff" d="M11.8056 33.3885L12.9985 31.334C12.9985 31.334 13.2857 30.7596 14.4124 30.7596C15.6053 30.7596 16.754 31.7538 16.8424 32.1293L15.053 35.2663C14.5449 36.172 13.3962 36.4813 12.4904 35.9511C11.5847 35.443 11.2975 34.2943 11.8056 33.3885Z"></path>
  </g>
</svg>
